<?xml version="1.0" encoding="UTF-8"?>
<svg id="ETM_SAC" data-name="ETM SAC" xmlns="http://www.w3.org/2000/svg" viewBox="0 0 211.19 135.1">
  <defs>
    <style>
      .cls-1 {
        fill: #266cae;
      }

      .cls-2 {
        fill: #fcbd16;
      }
    </style>
  </defs>
  <polygon class="cls-2" points="140.35 0 140.35 0 166.82 85.22 182.9 35.87 211.19 135.1 189.86 135.1 179.24 93.14 154.72 135.1 140.35 0"/>
  <path class="cls-1" d="M121.47,41.51v27.05s-21,0-21,0v66.21s-27.41,0-27.41,0v-66.56h-40.42c-2.84,0-5.14,2.3-5.14,5.14v.1c0,2.42,1.96,4.38,4.38,4.38h18.4v20.62h-19.79c-2.64,0-4.78,2.14-4.78,4.78v.08c0,2.64,2.14,4.78,4.78,4.78l19.85-.12v26.7l-25.91.12c-13.49,0-24.43-10.94-24.43-24.43v-43.86c0-13.79,11.18-24.97,24.97-24.97h96.5Z"/>
  <polygon class="cls-1" points="107.94 135.09 132.96 135.1 146.37 96.04 140.64 41.8 107.94 135.09"/>
</svg>